<svg width="24" height="24" viewBox="0 0 24 24" fill="none" xmlns="http://www.w3.org/2000/svg">
  <path d="M8 17.0001C7 17.0001 5 17.5001 5 14.5001C5 11.9998 6 8.99935 7 7.99935C8.5 6.5 11 6.5 13 7.5C15 8.5 14 10.9999 14 12.4999C14 13.9999 13 18.5002 8 17.0001Z" fill="#F56476" stroke="#F56476" stroke-width="1.5" stroke-linecap="round" stroke-linejoin="round"/>
  <path d="M13.9998 7.5C13.9998 7.5 13.4998 9.5 13.9998 12" stroke="#D91B45" stroke-width="1.5" stroke-linecap="round" stroke-linejoin="round"/>
  <path d="M8 18V20" stroke="#D91B45" stroke-width="1.5" stroke-linecap="round" stroke-linejoin="round"/>
  <path d="M16 19C16 19 16.5 17 14.5 15" stroke="#F56476" stroke-width="1.5" stroke-linecap="round" stroke-linejoin="round"/>
  <path d="M18 17C18 17 19 15.5 17 13" stroke="#F56476" stroke-width="1.5" stroke-linecap="round" stroke-linejoin="round"/>
</svg>